<?xml version="1.0" encoding="UTF-8"?>
<svg id="Layer_2" data-name="Layer 2" xmlns="http://www.w3.org/2000/svg" viewBox="0 0 337.44 356.83">
  <defs>
    <style>
      .cls-1 {
        fill: #fca304;
      }

      .cls-1, .cls-2, .cls-3 {
        stroke-width: 0px;
      }

      .cls-2 {
        fill: #ac5b04;
      }

      .cls-3 {
        fill: #5aa01c;
      }
    </style>
  </defs>
  <g id="Layer_1-2" data-name="Layer 1">
    <g>
      <path class="cls-1" d="M167.27,332.52c-2.7-2.93-5.03-5.56-7.35-8.22-2.24-2.57-3.14-5.52-3.44-8.72-.51-5.39-1.12-10.79-1.18-16.19-.09-8.06-3.12-14.74-8.49-20.54-.93-1-1.77-2.15-2.87-2.93-3.09-2.2-3.52-5.22-3.67-8.75-.14-3.46.3-6.39,2.78-8.94,1.55-1.6.61-3.59.06-5.21-.86-2.54-.19-4.41,1.55-6.17.9-.92,1.65-2.01,2.63-2.83,2.14-1.78,1.81-3.61.36-5.56-1.53-2.05-1.97-4.1-.75-6.58.92-1.86.6-3.72-.93-5.47-2.08-2.4-3.85-5.06-5.73-7.63-.78-1.07-1-2.35-.41-3.47,1.84-3.48.33-6.32-1.64-9.01-3.03-4.14-6.21-8.17-9.26-12.3-1.26-1.7-2.42-3.48-3.52-5.28-.89-1.46-1.06-2.93.2-4.4.78-.91,1.24-2.08,1.98-3.03,1.15-1.47,1.38-2.85.54-4.63-1.36-2.86-.08-5.29,1.71-7.53.68-.85,2.02-1.59,1.28-2.86-.74-1.29-1.77-2.51-3.58-2.42-.85.04-1.85-.05-2.32-.75-1.3-1.93-3.18-1.74-5.1-1.77-2.98-.03-5.95-.17-8.92-.25-1.54-.04-2.83-.5-3.66-1.9-.11-.19-.3-.34-.43-.51-5.6-7.43-3.56-6.08-13.22-6.19-.23,0-.46.04-.69.02-7.13-.74-13.24,1.96-19.01,5.69-2.79,1.8-5.26,1.74-8.27.08-4.01-2.22-8.69-2.24-13.16-1.95-2.2.14-4.03,1.95-5.97,3.1-1.87,1.11-3.59,1.48-5.32-.21-.31-.3-.78-.57-1.2-.59-4.67-.26-6.9-3.95-9.68-6.85-2.02-2.11-3.83-4.08-6.92-5.19-2.92-1.05-5.29-3.94-7.13-6.78-.53-.82-.17-1.78.05-2.67.39-1.6.05-2.92-1.22-4.11-1.21-1.13-2.18-2.52-3.33-3.72-1.82-1.89-3.5-3.72-6.48-4.19-2.73-.43-4.25-2.96-5.41-5.4-.45-.96.07-1.78.85-2.38,1.38-1.06,1.48-2.2.32-3.48-1.61-1.77-1.28-3.18.71-4.44,2.61-1.65,3.79-4.27,3.61-7.19-.18-2.78,1.01-4.38,3.14-5.78,3.06-2,3.61-5.06,1.38-7.95-1.16-1.51-.9-2.52.42-3.66,2.05-1.77,1.83-2.94-.65-4.11-3.41-1.6-3.68-3.45-.86-5.93,1.36-1.2,2.7-2.43,4.15-3.52,1.68-1.27,3.13-2.53,3.17-4.92.02-1.31,1.34-2.06,2.35-2.65,3.24-1.88,5.16-4.53,6.47-8.09,1.6-4.38,5.63-7.06,8.75-10.35.43-.45,1.13-.66,1.71-.47,2,.68,3.55-.24,5.07-1.3,2.05-1.42,4.03-2.96,6.14-4.29,2.75-1.74,3.73-4.38,3.67-7.37-.07-3.24,1.41-5.5,3.82-7.34,4.08-3.13,8.19-6.2,12.26-9.34,2.67-2.06,4.97-4.5,6.72-7.39.77-1.27,1.35-1.41,2.34-.16,1.56,1.98,8.26,3.56,10.59,2.59.95-.39,1.52-1.26,2.08-2.07.7-1.01,1.57-1.76,2.82-1.47,5.77,1.35,10.78-1.24,15.81-3.22,3.64-1.43,7.07-2.07,10.82-.63,2.21.84,4.36-.1,6.35-1.02,1.35-.62,2.62-.71,3.98-.26,1.13.37,2.34.57,3.32-.14,3.15-2.26,6.78-.57,10.11-1.34.97-.22.88.6.5,1.19-.95,1.46-.82,2.77.13,4.23.82,1.25.73,2.55-.51,3.69-1.74,1.59-3.4,3.27-5.08,4.91-2.38,2.33-1.79,4.82,1.47,5.91,2.29.77,4.7.39,7.05.37,1.62-.01,3.14-.19,4.12,1.63.63,1.17,2.02,1.32,3.28,1.17,2.9-.34,4.15,1.54,5.58,4.13-5.24-1.4-9.84.45-14.56.88-.5.05-1.09.24-1.46.58-3.16,2.88-5.57,6.26-6.45,10.51-.63,3.05-1.04,6.13-3.28,8.59-.63.69-.99,1.74-1.19,2.69-.31,1.47-.69,3.11.62,4.31,1.22,1.12,2.71.72,4.13.31.47-.14,1.09-.74,1.38-.07.38.91-.64,1.18-1.17,1.36-3.31,1.11-6.63,2.22-9.99,3.15-7.61,2.11-15.11,4.56-22.61,7.02-3.9,1.28-7.87,2.24-11.83,3.31-5.81,1.56-10.29,4.86-12.07,10.9-.9,3.05.47,5.5,2.71,7.49,1.76,1.56,3.84,1.8,5.95.85,2.67-1.2,3.47-3.84,4.44-6.28.53-1.33.98-2.73,1.22-4.14.79-4.57,4.11-6.56,8-7.8,6.22-1.99,12.51-3.73,18.75-5.66,5.43-1.68,10.85-3.43,16.24-5.23,2.03-.68,3.51-.38,4.51,1.65,1.23,2.51,2.08,5.2,3.58,7.59.3.47.33,1.01-.07,1.5-.19.23-.5.5-.5.75.02,4.77-4.16,7.08-6.37,10.49-2.47,3.83-3.78,7.82-2.87,12.05,1.11,5.17,1.94,10.46,4.24,15.34.88,1.87,1.69,3.88,3.12,5.23,3.86,3.67,6.5,8.22,8.78,12.8,3.3,6.61,6.28,13.5,5.54,21.29-.31,3.27-.09,6.56,1.47,9.59.48.94.41,1.92.41,2.9-.02,1.59-.09,3.16.78,4.65.5.86.49,1.88-.28,2.78-.33.38-.54.94-.61,1.44-.45,3.38-1.05,6.77-1.41,10.12-.34,3.16.14,6.57-.24,9.76-.37,3.17.81,6.43-.76,9.55-.56,1.11-.12,2.55.63,3.71.97,1.52,1.27,3.21,1.44,4.99.26,2.72,1.68,5.18,1.87,7.96.12,1.74.39,3.48.45,5.23.15,4.33-.45,8.67.73,12.98.45,1.63.32,3.55-.04,5.23-.77,3.58-.53,7.08-.14,10.68.26,2.44-.28,5-.7,7.46-.58,3.41-.81,6.82-.78,10.26.07,7.95-.85,15.82-1.55,23.72-.39,4.37-.39,8.8.19,13.2.13,1.01-.3,2.09-.38,3.14-.33,3.91,1.19,7.2,3.22,10.47,2.6,4.18,5.04,8.49,6.08,13.96Z"/>
      <path class="cls-3" d="M328.99,257.99c0,1.91-.09,3.82.03,5.72.1,1.59-.44,1.49-1.53.85-.83-.49-1.89-1.42-2.67-.92-1.01.64-.18,1.94-.13,2.95.04.84.17,1.67.29,2.5.15,1.02-.21,1.67-1.29,1.69-1.6.04-2.2.77-1.81,2.33.94,3.81-.17,7.15-2.23,10.36-1.56,2.44-2.9,5.02-4.3,7.55-1.09,1.97-2.34,3.72-4.61,4.49-.82.28-1.64.85-1.27,1.86,1.56,4.32-.85,7.55-2.67,11.09-1.46,2.83-3.15,4.15-6.44,3.42-2.51-.56-5.02-.15-7.13,1.59-1.37,1.13-2.19.45-2.74-.94-.87-2.21-.64-4.51-.54-6.79.11-2.59.14-4.98-1.47-7.39-1.44-2.17-1.37-3.31,1-5.03.37-.27.71-.6,1.12-.79,4.5-2.06,5.45-5.95,5.46-10.37,0-.71.06-1.45-.38-1.98-1.47-1.78-1.04-3.41.39-4.87,1.42-1.45,1.54-3.06.87-4.82-.79-2.07-.09-3.52,1.7-4.62,1.88-1.16,3.78-2.29,5.6-3.54,1.54-1.06,2.78-.97,3.9.55,1.33,1.81,2.49,1.74,3.94-.04,1.96-2.42,3.69-4.85,3.65-8.13-.02-1.9.79-3.07,2.81-3.05,1.76.01,2.2-1.24,2.7-2.56.61-1.6.72-4.2,2.31-4.4,1.9-.24,2.71,2.32,3.88,3.76.94,1.14,1.36,2.52,1.32,4.04-.05,1.83-.01,3.66-.01,5.49.09,0,.18,0,.27,0Z"/>
      <g>
        <path class="cls-2" d="M257.92,74.79c1.1.77,2.35,1.6,3.54,2.51.66.51.8,1.28.57,2.08-.19.66-.43,1.3-.63,1.96-1.93,6.12-.73,8.94,5.24,11.33,2.19.88,3.14,2.26,3.22,4.42.05,1.62.68,2.74,2.23,3.36,1.54.61,2.11,1.85,2.03,3.47-.08,1.68-.07,3.36-.15,5.04-.09,1.71.63,2.42,2.13,1.45,1.84-1.18,3.02-.67,3.83,1.1.58,1.25,1.47,1.72,2.74,1.44,2.74-.59,4.72.5,6.29,2.67.85,1.17,1.79,2.27,2.72,3.37.99,1.16,1.39,2.27.34,3.67-.66.87-.94,1.92.75,2.03,1.49.1,1.79,1,1.48,2.21-.59,2.25.42,3.37,2.35,4.47,3.25,1.86,6.17,2.43,9.12-.42,1.06-1.03,2.27-.85,3.22.23,1.08,1.21,2.37,1.26,3.77.87,6.13-1.71,12.59-2.45,18.04-6.19,1.08-.74,2.4-1.08,3.71-.48,2.69,1.24,4.18,2.13,1.71,5.18-1.12,1.39-2.61,2.88-.03,4.41.74.44.54,1.26-.06,1.76-5.23,4.36-6.62,10.8-8.98,16.68-1.69,4.2-4.8,7.38-7.31,10.99-1.13,1.63-2.44,3.13-3.6,4.73-2.26,3.09-4.85,5.58-8.89,6.24-2.05.33-3.77,1.67-5.22,3.15-8.13,8.25-16.28,16.47-24.29,24.84-2.5,2.61-2.96,6.25-3.74,9.65-.19.82.38,1.45,1.05,1.89.95.63,1.94,1.22,2.88,1.87.42.29,1.03.53.96,1.16-.07.65-.72.76-1.21.88-1.94.48-3.49,1.05-1.78,3.45.52.73-.31,1.24-.67,1.78-1.26,1.89-1.19,3.67.29,5.43,1.44,1.71,3.19,3.07,4.94,4.41,1.08.83,1.59,1.78,1.37,3.14-.16.98-.1,2-.35,2.95-1.19,4.5-.82,8.91.61,13.27.74,2.27.56,4.2-1.33,6.01-2.31,2.2-4.48,4.58-6.48,7.07-1.94,2.41-4.28,3.39-7.22,2.73-3.17-.71-5.39.27-6.51,3.35-1.73,4.73-5.4,7.41-9.75,9.42-.9.41-1.72.98-2.6,1.44-1.04.55-.96.99.02,1.55,1.41.81,3.52.97,3.91,2.85.62,2.96,1.44,5.98.54,9.05-.9,3.08-2.19,6-3.55,8.91-.94,2.02-2.35,3.5-4.41,4.41-1.6.71-3.16,1.51-4.72,2.32-1.11.58-1.76,1.3-.49,2.41,1.64,1.43,1.42,2.94.38,4.67-3,4.96-5.92,9.96-8.84,14.96-.91,1.56-2.22,2.51-4,2.72-2.85.34-4.83,1.93-6.62,4.06-2.59,3.09-5.09,6.29-8.57,8.48-.43.27-.82.86-1.38.61-.61-.27-.34-.95-.3-1.43.21-2.89-.55-5.58-1.55-8.25-.51-1.37-1.41-2.89.81-3.78.57-.23.72-.95.75-1.59.3-7.5,2.2-14.76,3.27-22.15.92-6.33.95-12.79,1.93-19.11,1.36-8.83,1.55-17.6.36-26.44-.49-3.63-2.02-7.06-1.93-10.78-2.37-1.63-.94-4.17-1.32-6.24-.31-1.69.34-3.73,1.05-5.41,1.11-2.63,2.06-5.24,2.18-8.11.01-.3.01-.62.11-.91,3.18-9.54,4.99-19.5,8.66-28.86,1.38-3.5,2.65-7.1,3.79-10.63,1.04-3.21,2.7-6.64,1.83-10.33-.08-.36-.1-.8.03-1.13,1.52-3.81.22-7.73.17-11.55-.04-3.69-1.47-7.37-2.38-11.03-.24-.98-.47-1.93-.38-2.92.46-5.46-.23-10.94-.44-16.35-.24-6.17-1.92-12.4-4.41-18.31-3.65-8.62-5.78-17.64-6.1-27.06-.07-1.94.56-2.43,2.32-1.84,1.62.54,3.33.6,4.99.48,9.13-.65,18.32-.5,27.4-1.9,4.91-.76,6.48-2.41,6.57-7.36.07-4.11.01-8.21.01-12.47Z"/>
        <path class="cls-2" d="M161.89,28.91c2.96-.65,5.35-.25,7.21,2.01.19.23.44.42.65.64,4.41,4.61,5.1,4.61,10.05.56,1.34-1.1,1.14-1.79-.19-2.46-1.49-.75-2.06-1.9-1.94-3.53.09-1.19.57-2.03,1.62-2.57.81-.42,1.62-.84,2.44-1.22,5.62-2.62,5.69-2.68,10.12,1.56,1.54,1.47,3.23,1.39,4.88,1,3.21-.76,6.01.15,8.78,1.56,2.44,1.25,4.91,2.46,7.34,3.73.61.32,1.66.24,1.56,1.36-.08,1-.6,1.73-1.56,2.05-2.82.95-5.61,1.99-8.46,2.81-9.67,2.76-19.38,5.42-29.05,8.18-1.4.4-2.31.43-2.61-1.25-.08-.42-.31-.98-.64-1.18-2.8-1.63-3.37-4.74-4.86-7.22-1.37-2.29-3.34-4.06-5.33-6.03Z"/>
        <path class="cls-2" d="M215.94,38.39c-1.5,1.11-2.24,2.79-3.31,4.16-1.02,1.31-2.76,2.34-4.25,3.21-4.6,2.66-8.19,6.55-12.46,9.58-4.08,2.89-7.93,6.11-12.24,8.68-.7.42-1.19,1.18-1.86,1.67-.91.66-2.17,1.62-3.03,1.07-1.17-.75-2.55-1.79-2.41-3.62.05-.61.04-1.22.11-1.83.26-2.18-.51-3.75-2.67-4.42-.57-.18-.91-.44-1.17-.95-1.11-2.12.8-6.43,3.06-7.07,11.44-3.2,22.87-6.45,34.3-9.65,1.88-.53,3.78-.94,5.68-1.41.09.19.18.39.26.58Z"/>
        <path class="cls-2" d="M213.98,66.88c3.06-5.26,6.49-10.11,10.56-14.61,2.27-2.51,3.49-6.03,4.87-9.23.82-1.89,1.79-2.03,3.31-1.15,1.96,1.15,3.56,2.41,3.44,5.13-.08,1.77.98,3.45,1.41,5.22,1.39,5.75,1.8,11.55,1.34,17.41-.29,3.77-.43,3.66-4.22,3.12-7.14-1.01-13.91-3.29-20.72-5.9Z"/>
        <path class="cls-2" d="M187.67,261.94c.71,21.61,1.05,43.24-.84,64.84-2.38-3-3.73-6.16-2.87-10,1.71-7.56,1.4-15.29,1.9-22.96.18-2.81.18-5.65.56-8.43.91-6.66-.16-13.35.45-20,.11-1.17.52-2.3.79-3.45Z"/>
        <path class="cls-2" d="M194.89,355.4c-2.44,1.8-4.91,1.76-7.37.65,2.35-.45,4.78-1.04,7.37-.65Z"/>
      </g>
    </g>
  </g>
</svg>