<?xml version="1.0" encoding="UTF-8"?>
<svg id="Layer_2" data-name="Layer 2" xmlns="http://www.w3.org/2000/svg" viewBox="0 0 749.09 356.83">
  <defs>
    <style>
      .cls-1 {
        fill: #ab5b06;
      }

      .cls-1, .cls-2, .cls-3, .cls-4 {
        stroke-width: 0px;
      }

      .cls-2 {
        fill: #fca304;
      }

      .cls-3 {
        fill: #ac5b04;
      }

      .cls-4 {
        fill: #5aa01c;
      }
    </style>
  </defs>
  <g id="Layer_1-2" data-name="Layer 1">
    <g>
      <g>
        <path class="cls-4" d="M497.57,237.6c0,7.82-.09,15.64.05,23.46.04,2.43-.65,3.36-3.14,3.16-2.61-.2-5.24-.18-7.86-.04-2.06.11-2.47-.77-2.46-2.63.06-22.33.09-44.65,0-66.98-.01-2.54.87-3.11,3.22-3.14,10.77-.14,10.77-.2,13.2,10.18.71,3.02,1.38,6.05,2.11,9.07.25,1.04.24,2.63,1.68,2.52,1.67-.13.93-1.78.95-2.74.08-5.24.13-10.48-.02-15.71-.07-2.34.54-3.46,3.09-3.32,3.11.17,6.24.13,9.36.04,1.97-.06,2.54.75,2.54,2.66-.05,22.45-.05,44.9.02,67.36,0,2.17-.75,2.83-2.81,2.72-2.49-.13-5.03-.31-7.48.03-3.83.53-5.13-1.29-5.9-4.69-1.66-7.36-3.67-14.65-5.53-21.97h-1.01Z"/>
        <path class="cls-4" d="M720.97,237.68c0,7.71-.1,15.43.05,23.14.05,2.59-.68,3.38-3.34,3.39-10.15.04-10.13.14-10.12-9.99.02-19.59.11-39.18-.07-58.76-.03-3.45,1.07-4.12,4.21-4.04,9.78.26,9.77.15,12.1,9.63,1.33,5.42,2.71,10.82,4.89,16.18,0-7.19.24-14.38-.1-21.55-.17-3.6,1.03-4.6,4.33-4.19,3.42.43,7.83-1.52,10.06.8,2.04,2.12.6,6.43.61,9.77.06,19.46-.02,38.93.09,58.39.02,2.81-.53,4.19-3.66,3.78-1.96-.26-4.05-.37-5.97.02-4.52.9-5.91-1.36-6.75-5.32-1.52-7.14-3.53-14.18-5.34-21.26-.33,0-.66.01-.99.02Z"/>
        <path class="cls-4" d="M526.4,227.51c0-10.85.08-21.71-.06-32.56-.04-2.81.88-3.65,3.65-3.59,8.11.16,16.23.02,24.34.07,6.3.04,9.23,2.8,9.25,9.12.08,17.59.1,35.19-.04,52.78-.06,7.93-3.1,10.77-11,10.84-7.74.06-15.48-.08-23.22.03-2.3.03-2.97-.7-2.95-2.99.11-11.23.05-22.46.05-33.69h-.02ZM549.07,227.79c0-6.97-.04-13.94.01-20.91.03-4.22-3.14-2.4-5.1-2.72-1.99-.33-3.11.17-3.08,2.73.14,13.82.13,27.64,0,41.45-.03,2.8,1.08,3.42,3.52,3.19,2.2-.21,4.84.83,4.71-3.2-.23-6.84-.06-13.69-.06-20.54Z"/>
        <path class="cls-4" d="M396.61,227.54c0-8.48-.03-16.95.02-25.43.04-7.84,2.83-10.63,10.57-10.68,5.61-.04,11.22-.08,16.83,0,7.31.11,10.29,3.01,10.31,10.22.06,17.07.06,34.15-.01,51.22-.04,8.27-3.1,11.22-11.36,11.28-5.11.04-10.23.03-15.34.01-7.79-.03-11.02-3.32-11.03-11.22-.01-8.48,0-16.95,0-25.43ZM411.26,227.13s-.1,0-.14,0c0,6.97.15,13.95-.06,20.92-.12,4.06,2.5,3.34,4.93,3.49,2.55.16,3.85-.4,3.82-3.42-.14-13.58-.18-27.15,0-40.73.05-3.97-2.42-3.17-4.68-3.29-2.32-.12-4.05-.04-3.93,3.22.24,6.59.07,13.2.07,19.8Z"/>
        <path class="cls-4" d="M663.87,227.51c0-8.6-.04-17.2.01-25.81.05-7.45,2.75-10.15,10.16-10.21,6.11-.04,12.22-.06,18.33.04,5.91.1,9.1,3.08,9.14,9,.12,17.95.11,35.91,0,53.86-.04,6.37-3.45,9.62-9.81,9.75-5.86.12-11.72.09-17.59,0-6.85-.1-10.07-3.17-10.2-10.09-.17-8.85-.04-17.7-.04-26.55ZM686.76,227.49h-.01c0-6.84-.15-13.69.06-20.53.1-3.27-1.89-2.93-3.85-2.82-2.01.11-4.63-.98-4.6,2.91.11,13.81.09,27.63-.03,41.44-.04,4.17,2.86,2.7,4.92,2.99,2.37.33,3.65-.22,3.57-3.08-.18-6.96-.06-13.94-.06-20.91Z"/>
        <path class="cls-4" d="M440.51,224.73c0-9.99.07-19.97-.05-29.96-.03-2.62.83-3.53,3.44-3.31,2.61.21,5.27.28,7.86-.02,2.98-.35,3.58.87,3.56,3.56-.09,16.73-.05,33.46-.05,50.19,0,.75.07,1.51-.03,2.25-.44,3.37,1.09,4.16,4.3,4.19,3.4.03,3.81-1.43,3.8-4.27-.1-17.23.07-34.46-.14-51.68-.04-3.61,1.12-4.52,4.41-4.21,2.6.25,5.24.12,7.86.03,1.89-.07,2.66.58,2.66,2.57-.05,20.1.07,40.2-.1,60.3-.06,6.65-3.51,9.72-10.14,9.8-5.99.07-11.99.14-17.98-.06-6.04-.2-8.78-3.05-9.23-9.02-.05-.62-.14-1.24-.14-1.87,0-9.49,0-18.98,0-28.46h-.02Z"/>
        <path class="cls-4" d="M601.4,264.18c-.37,0-.75,0-1.12,0-5.9,0-6.05.01-6.79-5.94-.32-2.59-1.34-3.49-3.81-3.09-.73.12-1.52.15-2.24,0-3.73-.76-5.25.85-5.17,4.51.08,3.44-1.3,5.17-5.14,4.58-3.18-.49-7.74,1.33-9.32-.65-1.72-2.14.45-6.3,1.03-9.54,3.5-19.62,7.19-39.21,10.55-58.86.56-3.27,1.8-4.12,4.83-3.84,2.72.25,5.5.25,8.23.02,2.57-.22,3.54.89,3.95,3.22,2.53,14.48,5.11,28.95,7.7,43.42,1.29,7.24,2.61,14.47,3.94,21.71.83,4.49.85,4.48-3.63,4.46-1,0-2,0-3,0ZM588.2,218.93c-2.06,7.84-2.11,15.11-3.44,22.18-.56,2.98,1.52,2.5,3.19,2.54,1.82.05,3.41.22,2.97-2.71-1.07-7.02-1.77-14.09-2.72-22.02Z"/>
        <path class="cls-4" d="M361.51,227.88c0-10.99.08-21.97-.06-32.96-.04-2.83.9-3.66,3.64-3.6,7.24.17,14.49.18,21.73.04,2.43-.05,3.46.95,3.66,3.12.32,3.34,2.82,7.5,1.13,9.67-1.74,2.25-6.32.7-9.65.75-6.85.1-5.46-.04-5.58,5.67-.06,2.99.09,6-.06,8.99-.11,2.18.82,2.95,2.85,2.75.12-.01.25-.02.37-.01,9.63.23,9.57.23,9.01,9.95-.11,1.98-.81,2.71-2.68,2.53-.12-.01-.25,0-.37,0q-9.13.27-9.13,9.27c0,5.74-.11,11.49.04,17.23.06,2.34-.75,3.06-3,2.95-2.99-.15-6-.13-8.99.01-2.29.11-2.99-.71-2.97-3.01.11-11.11.05-22.22.05-33.33Z"/>
        <path class="cls-4" d="M614.67,234.78c0-8.73-.15-17.46.07-26.19.08-3.04-.93-3.78-3.77-3.75-6.1.07-6.1-.06-4.46-5.84q2.15-7.59,9.97-7.59c5.37,0,10.73-.01,16.1.02,1.07,0,2.58-.49,3,.84,1.15,3.68,2.14,7.41,2.96,11.17.4,1.82-1.28,1.44-2.29,1.5q-6.81.42-6.81,7.24c0,16.09-.07,32.18.03,48.26.02,2.8-.57,4.11-3.67,3.78-2.72-.28-5.49-.2-8.23-.01-2.26.15-3-.52-2.97-2.88.14-8.85.06-17.71.05-26.56Z"/>
        <path class="cls-4" d="M643.19,227.89c0-10.98.07-21.95-.06-32.93-.03-2.64.48-3.91,3.46-3.6,2.72.28,5.49.2,8.23.02,2.37-.16,2.97.81,2.96,3.02-.05,22.32-.04,44.65,0,66.97,0,1.99-.52,2.97-2.74,2.85-2.99-.16-6-.18-8.98,0-2.4.15-2.93-.86-2.91-3.04.08-11.1.04-22.2.03-33.3Z"/>
      </g>
      <g>
        <g>
          <path class="cls-1" d="M640.71,141.24c0-8.36,0-16.72,0-25.07.01-8.1,2.67-10.87,10.64-10.98,5.86-.08,11.73-.17,17.59-.02,6.8.17,9.59,3.06,9.66,10.09.11,11.23.04,22.45.04,33.68,0,6.11.09,12.23-.03,18.34-.15,7.56-3.25,10.6-10.8,10.68-5.62.06-11.23.04-16.85-.01-6.68-.06-10.11-3.37-10.21-10.13-.12-8.86-.03-17.71-.03-26.57h-.02ZM655.56,141.28c0,6.99.17,13.98-.07,20.97-.13,3.59,2.11,2.95,4.13,2.96,2.04,0,4.28.61,4.24-2.92-.14-13.85-.14-27.71-.04-41.56.03-3.69-2.47-2.66-4.37-2.72-1.87-.06-4.06-.7-3.96,2.69.19,6.86.06,13.73.06,20.59Z"/>
          <path class="cls-1" d="M612.96,141.72c0,6.61.13,13.23-.05,19.84-.1,3.74,2.36,2.92,4.51,3.09,2.44.19,3.59-.45,3.53-3.24-.18-7.36.03-14.72-.14-22.08-.06-2.53.51-3.72,3.25-3.39,3.54.43,8.14-1.53,10.4.82,2.08,2.16.58,6.67.61,10.13.08,9.36-.03,18.71.06,28.07.02,2.15-.41,3.1-2.86,3.06-8.24-.15-16.48.04-24.71-.1-5.47-.09-8.44-2.99-9.08-8.41-.12-.99-.2-1.99-.2-2.98,0-17.22-.04-34.43.04-51.65.03-7.21,2.57-9.68,9.71-9.77,5.49-.07,10.99.1,16.47-.1,2.55-.09,3.66.94,3.93,3.28.08.74.16,1.49.24,2.23.27,2.65,2.49,5.9.74,7.71-1.67,1.72-5.23.47-7.96.49-8.5.07-8.5.02-8.5,8.4,0,4.87,0,9.73,0,14.6h.03Z"/>
          <path class="cls-1" d="M718.67,141.65c0-10.97.11-21.95-.07-32.92-.05-3.06,1.01-3.79,3.86-3.72,6.98.18,13.97.22,20.95,0,3.06-.1,4.3,1.02,4.47,3.93.09,1.61.49,3.2.77,4.79.88,5.02.88,4.96-4.38,5.04-3.35.05-7.63-1.43-9.79.58-2.38,2.21-.71,6.61-.78,10.04-.15,6.56-.03,6.57,6.72,6.57.87,0,1.76.08,2.62-.02,2.05-.23,3.11.47,2.75,2.67-.04.24,0,.5-.02.75-.25,2.95,1.27,6.67-.68,8.65-1.81,1.83-5.49.63-8.32.55-2.56-.07-3.18.94-3.15,3.29.1,7.73-.04,15.46.07,23.19.03,2.24-.55,3.12-2.92,2.97-3.84-.24-8.82,1.24-11.26-.65-2.61-2.03-.73-7.23-.8-11.03-.15-8.23-.05-16.46-.05-24.69Z"/>
          <path class="cls-1" d="M684.68,142.01c0-10.98.16-21.97-.09-32.94-.08-3.48,1.12-4.36,4.26-4.05,2.35.23,4.75.27,7.11.09,2.92-.23,3.82.8,3.8,3.79-.14,17.1.02,34.19-.14,51.29-.03,3.41.85,4.7,4.33,4.3,2.46-.29,5,.12,7.48-.1,2.66-.23,2.92,1.07,2.45,3.12-.03.12-.06.24-.09.36-.75,3.27-.49,7.6-2.52,9.51-2.09,1.97-6.44.52-9.8.58-4.74.08-9.49-.1-14.23.06-2.14.07-2.69-.58-2.67-2.69.1-11.1.05-22.21.05-33.32h.05Z"/>
        </g>
        <g>
          <path class="cls-2" d="M442.41,141.25c0-10.98.08-21.96-.06-32.93-.03-2.61.67-3.54,3.34-3.49,8.11.14,16.22.04,24.34.1,6.35.05,9.86,3.27,9.95,9.48.15,10.97.11,21.95.06,32.93-.01,2.86-.74,5.62-3.75,6.71-2.48.9-2.44,2.51-1.79,4.41,1.68,4.9,3.44,9.78,5.19,14.66,1.55,4.31,1.2,4.81-3.41,4.85q-10.99.1-13.87-10.58c-.94-3.46-2.06-6.87-3.09-10.31-.2-.67-.12-1.66-1.24-1.42-.95.2-.86,1.11-.86,1.82-.02,4.99,0,9.98-.02,14.97-.03,5.55-.04,5.55-5.56,5.51-9.28-.07-9.25-.07-9.22-9.39.04-9.11,0-18.21,0-27.32h-.01ZM456.99,130.23c0,3.35.09,6.71-.03,10.06-.09,2.63,1.29,3.26,3.5,2.93,1.92-.29,4.86,1.23,4.84-2.67-.02-6.71.03-13.41,0-20.12-.01-3.63-2.81-2.31-4.64-2.42-1.74-.11-3.89-.6-3.72,2.54.18,3.22.04,6.45.03,9.68Z"/>
          <path class="cls-2" d="M574.38,177.97c-.25,0-.5,0-.75,0-6.57-.01-6.66,0-7.65-6.44-.28-1.82-.83-2.72-2.75-2.55-.99.09-2.01.1-2.99-.04-3.74-.55-5.41,1.14-5.07,4.77.32,3.47-1.24,4.59-4.52,4.31-2.35-.2-4.76-.23-7.1.02-3.34.36-3.73-1.34-3.24-3.97,2.4-12.68,4.85-25.35,7.16-38.04,1.69-9.26,3.25-18.55,4.76-27.84.37-2.24,1.36-3.32,3.66-3.28,3.12.05,6.24.16,9.35-.07,2.54-.19,3.65.87,4.06,3.22,1.23,7.1,2.49,14.19,3.77,21.28,2.32,12.83,4.65,25.66,7.03,38.48.5,2.68.39,5.46,1.47,8.05.58,1.39-.13,2.1-1.59,2.1-1.87,0-3.74,0-5.61,0ZM560.61,133.85c-.82,7.21-2.22,14.13-2.65,21.2-.17,2.76,1.55,2.3,3.08,2.34,1.66.04,3.41.12,2.9-2.48-1.36-6.9-1.18-14.04-3.33-21.06Z"/>
          <path class="cls-2" d="M382.43,104.92c7.51-.02,7.59-.04,8.91,7.37,2.72,15.26,5.34,30.55,8.02,45.82,1.01,5.75,2.01,11.5,3.14,17.22.39,1.98-.11,2.74-2.2,2.65-2.86-.12-5.75-.2-8.6.03-2.93.23-3.94-1-4.22-3.78-.18-1.71.86-4.47-1.23-4.98-2.69-.66-5.7-.3-8.53.03-1.34.16-.9,1.86-1,2.9-.56,5.76-.54,5.76-6.41,5.8-.75,0-1.5,0-2.25,0-7.22,0-7.28,0-5.95-7.26,3.85-21.01,7.78-42,11.59-63.01.35-1.94,1.05-2.92,3.11-2.8,1.87.1,3.74.02,5.61.02ZM382.43,134.73c-.24.02-.49.04-.73.06-.87,6.51-1.76,13.01-2.58,19.53-.11.87-1.02,2.13.31,2.64,1.64.63,3.45.65,5.11-.05,1.35-.57.51-1.77.41-2.64-.8-6.52-1.67-13.03-2.52-19.55Z"/>
          <path class="cls-2" d="M521.86,141.87c0,6.12.15,12.24-.07,18.35-.12,3.44,1.07,4.64,4.48,4.29,2.72-.28,5.49-.04,8.24-.05,1.25,0,2.69.4,2.17,1.76-1.17,3.09-.81,6.4-1.83,9.48-.54,1.62-1.28,2.37-3.15,2.32-5.24-.15-10.49.02-15.74-.09-5.73-.12-8.71-2.63-8.99-8.26-.39-8.1-.33-16.22-.36-24.33-.04-9.99-.02-19.97.03-29.96.04-7.75,2.85-10.47,10.71-10.46,4.75,0,9.49.05,14.24-.03,1.56-.02,2.66.27,3.01,2,.67,3.28,1.47,6.53,2.1,9.82.35,1.82-.95,2-2.33,2-3,0-6.01.17-8.99-.03-2.88-.19-3.64,1.02-3.57,3.72.15,6.49.05,12.98.04,19.47Z"/>
          <path class="cls-2" d="M406.83,141.5c0-10.86.13-21.71-.08-32.57-.06-3.4,1.03-4.21,4.29-4.09,6.86.25,13.73.22,20.59-.03,2.92-.11,4.07,1.19,4.58,3.65.58,2.8.5,5.69,1.35,8.48.6,1.97-1.28,1.77-2.41,1.79-3.24.06-6.49,0-9.73-.05-2.59-.04-3.86.9-3.66,3.77.24,3.35.09,6.73.08,10.1,0,2.43.97,3.46,3.61,3.49,8.72.08,8.59.19,8.63,8.9.02,3.1-1.17,3.75-3.97,3.72-8.31-.11-8.31-.02-8.31,8.34,0,5.99-.06,11.98.04,17.97.04,2.19-.59,3.2-2.96,3.03-3.84-.27-8.72,1.5-11.25-.68-2.42-2.08-.76-7.04-.8-10.72-.08-8.36-.02-16.72-.02-25.08Z"/>
          <path class="cls-2" d="M486.09,141.34c0-10.86.12-21.72-.07-32.57-.06-3.2.98-4.21,4.04-3.91,2.23.22,4.5.18,6.74,0,3.18-.25,4.13,1.22,4.1,4.2-.11,8.98-.05,17.97-.05,26.96,0,12.48-.13,24.96.08,37.44.06,3.73-1.3,4.88-4.79,4.54-2.23-.22-4.5-.2-6.74,0-2.61.22-3.4-.7-3.36-3.35.15-11.11.06-22.21.06-33.32Z"/>
        </g>
      </g>
      <g>
        <path class="cls-2" d="M167.27,332.52c-2.7-2.93-5.03-5.56-7.35-8.22-2.24-2.57-3.14-5.52-3.44-8.72-.51-5.39-1.12-10.79-1.18-16.19-.09-8.06-3.12-14.74-8.49-20.54-.93-1-1.77-2.15-2.87-2.93-3.09-2.2-3.52-5.22-3.67-8.75-.14-3.46.3-6.39,2.78-8.94,1.55-1.6.61-3.59.06-5.21-.86-2.54-.19-4.41,1.55-6.17.9-.92,1.65-2.01,2.63-2.83,2.14-1.78,1.81-3.61.36-5.56-1.53-2.05-1.97-4.1-.75-6.58.92-1.86.6-3.72-.93-5.47-2.08-2.4-3.85-5.06-5.73-7.63-.78-1.07-1-2.35-.41-3.47,1.84-3.48.33-6.32-1.64-9.01-3.03-4.14-6.21-8.17-9.26-12.3-1.26-1.7-2.42-3.48-3.52-5.28-.89-1.46-1.06-2.93.2-4.4.78-.91,1.24-2.08,1.98-3.03,1.15-1.47,1.38-2.85.54-4.63-1.36-2.86-.08-5.29,1.71-7.53.68-.85,2.02-1.59,1.28-2.86-.74-1.29-1.77-2.51-3.58-2.42-.85.04-1.85-.05-2.32-.75-1.3-1.93-3.18-1.74-5.1-1.77-2.98-.03-5.95-.17-8.92-.25-1.54-.04-2.83-.5-3.66-1.9-.11-.19-.3-.34-.43-.51-5.6-7.43-3.56-6.08-13.22-6.19-.23,0-.46.04-.69.02-7.13-.74-13.24,1.96-19.01,5.69-2.79,1.8-5.26,1.74-8.27.08-4.01-2.22-8.69-2.24-13.16-1.95-2.2.14-4.03,1.95-5.97,3.1-1.87,1.11-3.59,1.48-5.32-.21-.31-.3-.78-.57-1.2-.59-4.67-.26-6.9-3.95-9.68-6.85-2.02-2.11-3.83-4.08-6.92-5.19-2.92-1.05-5.29-3.94-7.13-6.78-.53-.82-.17-1.78.05-2.67.39-1.6.05-2.92-1.22-4.11-1.21-1.13-2.18-2.52-3.33-3.72-1.82-1.89-3.5-3.72-6.48-4.19-2.73-.43-4.25-2.96-5.41-5.4-.45-.96.07-1.78.85-2.38,1.38-1.06,1.48-2.2.32-3.48-1.61-1.77-1.28-3.18.71-4.44,2.61-1.65,3.79-4.27,3.61-7.19-.18-2.78,1.01-4.38,3.14-5.78,3.06-2,3.61-5.06,1.38-7.95-1.16-1.51-.9-2.52.42-3.66,2.05-1.77,1.83-2.94-.65-4.11-3.41-1.6-3.68-3.45-.86-5.93,1.36-1.2,2.7-2.43,4.15-3.52,1.68-1.27,3.13-2.53,3.17-4.92.02-1.31,1.34-2.06,2.35-2.65,3.24-1.88,5.16-4.53,6.47-8.09,1.6-4.38,5.63-7.06,8.75-10.35.43-.45,1.13-.66,1.71-.47,2,.68,3.55-.24,5.07-1.3,2.05-1.42,4.03-2.96,6.14-4.29,2.75-1.74,3.73-4.38,3.67-7.37-.07-3.24,1.41-5.5,3.82-7.34,4.08-3.13,8.19-6.2,12.26-9.34,2.67-2.06,4.97-4.5,6.72-7.39.77-1.27,1.35-1.41,2.34-.16,1.56,1.98,8.26,3.56,10.59,2.59.95-.39,1.52-1.26,2.08-2.07.7-1.01,1.57-1.76,2.82-1.47,5.77,1.35,10.78-1.24,15.81-3.22,3.64-1.43,7.07-2.07,10.82-.63,2.21.84,4.36-.1,6.35-1.02,1.35-.62,2.62-.71,3.98-.26,1.13.37,2.34.57,3.32-.14,3.15-2.26,6.78-.57,10.11-1.34.97-.22.88.6.5,1.19-.95,1.46-.82,2.77.13,4.23.82,1.25.73,2.55-.51,3.69-1.74,1.59-3.4,3.27-5.08,4.91-2.38,2.33-1.79,4.82,1.47,5.91,2.29.77,4.7.39,7.05.37,1.62-.01,3.14-.19,4.12,1.63.63,1.17,2.02,1.32,3.28,1.17,2.9-.34,4.15,1.54,5.58,4.13-5.24-1.4-9.84.45-14.56.88-.5.05-1.09.24-1.46.58-3.16,2.88-5.57,6.26-6.45,10.51-.63,3.05-1.04,6.13-3.28,8.59-.63.69-.99,1.74-1.19,2.69-.31,1.47-.69,3.11.62,4.31,1.22,1.12,2.71.72,4.13.31.47-.14,1.09-.74,1.38-.07.38.91-.64,1.18-1.17,1.36-3.31,1.11-6.63,2.22-9.99,3.15-7.61,2.11-15.11,4.56-22.61,7.02-3.9,1.28-7.87,2.24-11.83,3.31-5.81,1.56-10.29,4.86-12.07,10.9-.9,3.05.47,5.5,2.71,7.49,1.76,1.56,3.84,1.8,5.95.85,2.67-1.2,3.47-3.84,4.44-6.28.53-1.33.98-2.73,1.22-4.14.79-4.57,4.11-6.56,8-7.8,6.22-1.99,12.51-3.73,18.75-5.66,5.43-1.68,10.85-3.43,16.24-5.23,2.03-.68,3.51-.38,4.51,1.65,1.23,2.51,2.08,5.2,3.58,7.59.3.47.33,1.01-.07,1.5-.19.23-.5.5-.5.75.02,4.77-4.16,7.08-6.37,10.49-2.47,3.83-3.78,7.82-2.87,12.05,1.11,5.17,1.94,10.46,4.24,15.34.88,1.87,1.69,3.88,3.12,5.23,3.86,3.67,6.5,8.22,8.78,12.8,3.3,6.61,6.28,13.5,5.54,21.29-.31,3.27-.09,6.56,1.47,9.59.48.94.41,1.92.41,2.9-.02,1.59-.09,3.16.78,4.65.5.86.49,1.88-.28,2.78-.33.38-.54.94-.61,1.44-.45,3.38-1.05,6.77-1.41,10.12-.34,3.16.14,6.57-.24,9.76-.37,3.17.81,6.43-.76,9.55-.56,1.11-.12,2.55.63,3.71.97,1.52,1.27,3.21,1.44,4.99.26,2.72,1.68,5.18,1.87,7.96.12,1.74.39,3.48.45,5.23.15,4.33-.45,8.67.73,12.98.45,1.63.32,3.55-.04,5.23-.77,3.58-.53,7.08-.14,10.68.26,2.44-.28,5-.7,7.46-.58,3.41-.81,6.82-.78,10.26.07,7.95-.85,15.82-1.55,23.72-.39,4.37-.39,8.8.19,13.2.13,1.01-.3,2.09-.38,3.14-.33,3.91,1.19,7.2,3.22,10.47,2.6,4.18,5.04,8.49,6.08,13.96Z"/>
        <path class="cls-4" d="M328.99,257.99c0,1.91-.09,3.82.03,5.72.1,1.59-.44,1.49-1.53.85-.83-.49-1.89-1.42-2.67-.92-1.01.64-.18,1.94-.13,2.95.04.84.17,1.67.29,2.5.15,1.02-.21,1.67-1.29,1.69-1.6.04-2.2.77-1.81,2.33.94,3.81-.17,7.15-2.23,10.36-1.56,2.44-2.9,5.02-4.3,7.55-1.09,1.97-2.34,3.72-4.61,4.49-.82.28-1.64.85-1.27,1.86,1.56,4.32-.85,7.55-2.67,11.09-1.46,2.83-3.15,4.15-6.44,3.42-2.51-.56-5.02-.15-7.13,1.59-1.37,1.13-2.19.45-2.74-.94-.87-2.21-.64-4.51-.54-6.79.11-2.59.14-4.98-1.47-7.39-1.44-2.17-1.37-3.31,1-5.03.37-.27.71-.6,1.12-.79,4.5-2.06,5.45-5.95,5.46-10.37,0-.71.06-1.45-.38-1.98-1.47-1.78-1.04-3.41.39-4.87,1.42-1.45,1.54-3.06.87-4.82-.79-2.07-.09-3.52,1.7-4.62,1.88-1.16,3.78-2.29,5.6-3.54,1.54-1.06,2.78-.97,3.9.55,1.33,1.81,2.49,1.74,3.94-.04,1.96-2.42,3.69-4.85,3.65-8.13-.02-1.9.79-3.07,2.81-3.05,1.76.01,2.2-1.24,2.7-2.56.61-1.6.72-4.2,2.31-4.4,1.9-.24,2.71,2.32,3.88,3.76.94,1.14,1.36,2.52,1.32,4.04-.05,1.83-.01,3.66-.01,5.49.09,0,.18,0,.27,0Z"/>
        <g>
          <path class="cls-3" d="M257.92,74.79c1.1.77,2.35,1.6,3.54,2.51.66.51.8,1.28.57,2.08-.19.66-.43,1.3-.63,1.96-1.93,6.12-.73,8.94,5.24,11.33,2.19.88,3.14,2.26,3.22,4.42.05,1.62.68,2.74,2.23,3.36,1.54.61,2.11,1.85,2.03,3.47-.08,1.68-.07,3.36-.15,5.04-.09,1.71.63,2.42,2.13,1.45,1.84-1.18,3.02-.67,3.83,1.1.58,1.25,1.47,1.72,2.74,1.44,2.74-.59,4.72.5,6.29,2.67.85,1.17,1.79,2.27,2.72,3.37.99,1.16,1.39,2.27.34,3.67-.66.87-.94,1.92.75,2.03,1.49.1,1.79,1,1.48,2.21-.59,2.25.42,3.37,2.35,4.47,3.25,1.86,6.17,2.43,9.12-.42,1.06-1.03,2.27-.85,3.22.23,1.08,1.21,2.37,1.26,3.77.87,6.13-1.71,12.59-2.45,18.04-6.19,1.08-.74,2.4-1.08,3.71-.48,2.69,1.24,4.18,2.13,1.71,5.18-1.12,1.39-2.61,2.88-.03,4.41.74.44.54,1.26-.06,1.76-5.23,4.36-6.62,10.8-8.98,16.68-1.69,4.2-4.8,7.38-7.31,10.99-1.13,1.63-2.44,3.13-3.6,4.73-2.26,3.09-4.85,5.58-8.89,6.24-2.05.33-3.77,1.67-5.22,3.15-8.13,8.25-16.28,16.47-24.29,24.84-2.5,2.61-2.96,6.25-3.74,9.65-.19.82.38,1.45,1.05,1.89.95.63,1.94,1.22,2.88,1.87.42.29,1.03.53.96,1.16-.07.65-.72.76-1.21.88-1.94.48-3.49,1.05-1.78,3.45.52.73-.31,1.24-.67,1.78-1.26,1.89-1.19,3.67.29,5.43,1.44,1.71,3.19,3.07,4.94,4.41,1.08.83,1.59,1.78,1.37,3.14-.16.98-.1,2-.35,2.95-1.19,4.5-.82,8.91.61,13.27.74,2.27.56,4.2-1.33,6.01-2.31,2.2-4.48,4.58-6.48,7.07-1.94,2.41-4.28,3.39-7.22,2.73-3.17-.71-5.39.27-6.51,3.35-1.73,4.73-5.4,7.41-9.75,9.42-.9.41-1.72.98-2.6,1.44-1.04.55-.96.99.02,1.55,1.41.81,3.52.97,3.91,2.85.62,2.96,1.44,5.98.54,9.05-.9,3.08-2.19,6-3.55,8.91-.94,2.02-2.35,3.5-4.41,4.41-1.6.71-3.16,1.51-4.72,2.32-1.11.58-1.76,1.3-.49,2.41,1.64,1.43,1.42,2.94.38,4.67-3,4.96-5.92,9.96-8.84,14.96-.91,1.56-2.22,2.51-4,2.72-2.85.34-4.83,1.93-6.62,4.06-2.59,3.09-5.09,6.29-8.57,8.48-.43.27-.82.86-1.38.61-.61-.27-.34-.95-.3-1.43.21-2.89-.55-5.58-1.55-8.25-.51-1.37-1.41-2.89.81-3.78.57-.23.72-.95.75-1.59.3-7.5,2.2-14.76,3.27-22.15.92-6.33.95-12.79,1.93-19.11,1.36-8.83,1.55-17.6.36-26.44-.49-3.63-2.02-7.06-1.93-10.78-2.37-1.63-.94-4.17-1.32-6.24-.31-1.69.34-3.73,1.05-5.41,1.11-2.63,2.06-5.24,2.18-8.11.01-.3.01-.62.11-.91,3.18-9.54,4.99-19.5,8.66-28.86,1.38-3.5,2.65-7.1,3.79-10.63,1.04-3.21,2.7-6.64,1.83-10.33-.08-.36-.1-.8.03-1.13,1.52-3.81.22-7.73.17-11.55-.04-3.69-1.47-7.37-2.38-11.03-.24-.98-.47-1.93-.38-2.92.46-5.46-.23-10.94-.44-16.35-.24-6.17-1.92-12.4-4.41-18.31-3.65-8.62-5.78-17.64-6.1-27.06-.07-1.94.56-2.43,2.32-1.84,1.62.54,3.33.6,4.99.48,9.13-.65,18.32-.5,27.4-1.9,4.91-.76,6.48-2.41,6.57-7.36.07-4.11.01-8.21.01-12.47Z"/>
          <path class="cls-3" d="M161.89,28.91c2.96-.65,5.35-.25,7.21,2.01.19.23.44.42.65.64,4.41,4.61,5.1,4.61,10.05.56,1.34-1.1,1.14-1.79-.19-2.46-1.49-.75-2.06-1.9-1.94-3.53.09-1.19.57-2.03,1.62-2.57.81-.42,1.62-.84,2.44-1.22,5.62-2.62,5.69-2.68,10.12,1.56,1.54,1.47,3.23,1.39,4.88,1,3.21-.76,6.01.15,8.78,1.56,2.44,1.25,4.91,2.46,7.34,3.73.61.32,1.66.24,1.56,1.36-.08,1-.6,1.73-1.56,2.05-2.82.95-5.61,1.99-8.46,2.81-9.67,2.76-19.38,5.42-29.05,8.18-1.4.4-2.31.43-2.61-1.25-.08-.42-.31-.98-.64-1.18-2.8-1.63-3.37-4.74-4.86-7.22-1.37-2.29-3.34-4.06-5.33-6.03Z"/>
          <path class="cls-3" d="M215.94,38.39c-1.5,1.11-2.24,2.79-3.31,4.16-1.02,1.31-2.76,2.34-4.25,3.21-4.6,2.66-8.19,6.55-12.46,9.58-4.08,2.89-7.93,6.11-12.24,8.68-.7.42-1.19,1.18-1.86,1.67-.91.66-2.17,1.62-3.03,1.07-1.17-.75-2.55-1.79-2.41-3.62.05-.61.04-1.22.11-1.83.26-2.18-.51-3.75-2.67-4.42-.57-.18-.91-.44-1.17-.95-1.11-2.12.8-6.43,3.06-7.07,11.44-3.2,22.87-6.45,34.3-9.65,1.88-.53,3.78-.94,5.68-1.41.09.19.18.39.26.58Z"/>
          <path class="cls-3" d="M213.98,66.88c3.06-5.26,6.49-10.11,10.56-14.61,2.27-2.51,3.49-6.03,4.87-9.23.82-1.89,1.79-2.03,3.31-1.15,1.96,1.15,3.56,2.41,3.44,5.13-.08,1.77.98,3.45,1.41,5.22,1.39,5.75,1.8,11.55,1.34,17.41-.29,3.77-.43,3.66-4.22,3.12-7.14-1.01-13.91-3.29-20.72-5.9Z"/>
          <path class="cls-3" d="M187.67,261.94c.71,21.61,1.05,43.24-.84,64.84-2.38-3-3.73-6.16-2.87-10,1.71-7.56,1.4-15.29,1.9-22.96.18-2.81.18-5.65.56-8.43.91-6.66-.16-13.35.45-20,.11-1.17.52-2.3.79-3.45Z"/>
          <path class="cls-3" d="M194.89,355.4c-2.44,1.8-4.91,1.76-7.37.65,2.35-.45,4.78-1.04,7.37-.65Z"/>
        </g>
      </g>
    </g>
  </g>
</svg>